<?xml version="1.0" encoding="UTF-8"?>
<svg width="20px" height="20px" viewBox="0 0 20 20" version="1.1" xmlns="http://www.w3.org/2000/svg" xmlns:xlink="http://www.w3.org/1999/xlink">
    <title>icon_jinggao</title>
    <g id="icon_jinggao" stroke="none" stroke-width="1" fill="none" fill-rule="evenodd">
        <circle id="椭圆形" fill="#FFA542" cx="10" cy="10" r="10"></circle>
        <path d="M10,15 C10.4142136,15 10.75,14.6642136 10.75,14.25 C10.75,13.8357864 10.4142136,13.5 10,13.5 C9.58578644,13.5 9.25,13.8357864 9.25,14.25 C9.25,14.6642136 9.58578644,15 10,15 Z" id="椭圆形" fill="#FFFFFF"></path>
        <path d="M10,5 C10.5166917,5 10.9355531,5.41886139 10.9355531,5.93555309 C10.9355531,5.95631436 10.934862,5.97706987 10.933481,5.99778516 L10.531116,12.0332595 C10.5136061,12.2959084 10.2954554,12.5 10.0322235,12.5 L9.96777655,12.5 C9.70454461,12.5 9.48639389,12.2959084 9.46888397,12.0332595 L9.06651901,5.99778516 C9.03214919,5.48223784 9.42222062,5.03644192 9.93776793,5.0020721 C9.95848322,5.00069108 9.97923873,5 10,5 Z" id="矩形" fill="#FFFFFF"></path>
    </g>
</svg>